<svg xmlns="http://www.w3.org/2000/svg" xmlns:xlink="http://www.w3.org/1999/xlink" zoomAndPan="magnify" viewBox="15 35 350 155" height="48" preserveAspectRatio="xMidYMid meet" version="1.0"><defs><g/></defs><g fill="#4e3bf0" fill-opacity="1"><g transform="translate(32.789065, 127.04132)"><g><path d="M 59.457031 -32.183594 C 59.457031 -32.183594 59.585938 -32.054688 59.457031 -32.3125 C 58.8125 -33.21875 57.90625 -32.570312 57 -32.3125 C 53.253906 -31.539062 49.375 -30.632812 45.496094 -29.988281 C 46.917969 -34.640625 48.339844 -39.550781 48.859375 -44.335938 C 49.117188 -46.144531 49.246094 -48.082031 48.859375 -49.890625 C 48.601562 -51.054688 48.210938 -52.21875 47.566406 -53.253906 C 47.566406 -53.253906 46.015625 -55.191406 46.402344 -54.15625 L 46.273438 -54.285156 L 45.757812 -55.320312 L 46.273438 -54.804688 C 46.402344 -55.578125 44.207031 -57 44.207031 -57 C 40.972656 -60.234375 36.578125 -62.6875 32.183594 -60.234375 C 29.46875 -58.683594 27.273438 -56.097656 25.464844 -53.511719 C 24.816406 -52.605469 24.171875 -51.574219 23.652344 -50.539062 C 23.136719 -49.503906 22.359375 -46.144531 21.585938 -45.628906 C 20.9375 -45.109375 19 -44.980469 18.09375 -44.464844 C 16.804688 -43.945312 15.640625 -43.300781 14.605469 -42.523438 C 12.148438 -40.972656 10.210938 -38.777344 8.402344 -36.578125 C 5.300781 -32.441406 3.75 -27.789062 1.550781 -23.652344 C -2.585938 -15.769531 1.9375 -5.429688 9.566406 -1.679688 C 12.019531 -0.515625 14.863281 0 17.449219 -0.257812 C 20.164062 -0.644531 22.75 -2.066406 24.816406 -3.617188 C 26.753906 -5.039062 31.019531 -7.625 31.796875 -9.824219 C 31.796875 -9.953125 31.539062 -9.824219 31.152344 -9.4375 L 34.898438 -13.832031 C 35.027344 -13.699219 33.992188 -12.410156 33.992188 -12.410156 C 34.898438 -12.019531 39.550781 -18.871094 40.070312 -19.386719 C 40.972656 -20.9375 41.878906 -22.621094 42.914062 -24.171875 C 43.816406 -25.332031 43.558594 -25.203125 44.851562 -25.722656 C 44.722656 -25.59375 46.402344 -26.109375 46.660156 -26.109375 C 48.082031 -26.367188 63.207031 -27.402344 59.457031 -32.183594 Z M 14.734375 -6.074219 L 14.605469 -6.074219 C 3.878906 -4.523438 16.285156 -27.273438 16.542969 -28.566406 L 15.769531 -27.402344 C 17.707031 -31.28125 19.515625 -34.382812 20.421875 -35.414062 C 21.84375 -28.953125 28.824219 -26.496094 34.511719 -25.722656 C 30.761719 -18.226562 23.78125 -7.753906 14.734375 -6.074219 Z M 40.199219 -41.878906 C 39.292969 -38.257812 38.519531 -33.476562 36.578125 -30.246094 C 35.933594 -28.953125 36.320312 -29.339844 35.027344 -29.082031 C 34.253906 -28.824219 32.570312 -29.082031 31.796875 -29.210938 C 30.375 -29.339844 28.695312 -29.597656 27.660156 -30.503906 C 25.851562 -32.054688 26.109375 -34.511719 26.367188 -36.707031 C 26.625 -38.90625 27.273438 -40.972656 28.046875 -43.042969 C 28.4375 -43.816406 30.890625 -47.953125 30.503906 -48.730469 C 30.375 -49.117188 28.953125 -46.789062 28.824219 -46.660156 C 29.597656 -48.082031 30.375 -48.859375 31.019531 -49.761719 C 30.890625 -49.761719 31.019531 -49.890625 31.152344 -50.152344 L 31.152344 -50.023438 L 31.28125 -50.28125 C 31.28125 -50.28125 31.28125 -50.410156 31.410156 -50.410156 C 33.347656 -52.996094 38.128906 -58.8125 40.714844 -54.804688 C 42.652344 -51.445312 40.84375 -45.109375 40.199219 -41.878906 Z M 31.28125 -50.28125 L 31.410156 -50.410156 C 31.410156 -50.28125 31.28125 -50.28125 31.28125 -50.28125 Z M 31.28125 -50.28125 "/></g></g></g><g fill="#4e3bf0" fill-opacity="1"><g transform="translate(83.324317, 127.04132)"><g><path d="M 73.160156 -32.054688 C 72.382812 -31.925781 65.660156 -29.859375 66.050781 -28.824219 C 66.050781 -28.695312 66.308594 -28.566406 66.4375 -28.566406 C 64.238281 -27.660156 61.394531 -27.53125 59.199219 -26.109375 C 56.742188 -24.429688 54.417969 -22.75 51.832031 -21.328125 C 54.15625 -25.332031 56.355469 -29.597656 57.777344 -33.863281 C 58.292969 -35.414062 61.265625 -44.980469 59.328125 -46.015625 C 59.070312 -46.144531 58.941406 -44.980469 58.8125 -44.335938 C 58.941406 -49.503906 57.261719 -57.390625 50.28125 -57.90625 C 46.015625 -58.164062 42.007812 -52.867188 39.679688 -50.023438 C 34.382812 -43.300781 29.730469 -36.0625 25.074219 -29.082031 C 23.78125 -27.144531 10.855469 -6.203125 10.855469 -6.203125 C 10.855469 -6.203125 11.761719 -7.496094 12.925781 -9.175781 C 11.761719 -7.238281 10.597656 -5.171875 9.566406 -3.101562 C 10.082031 -5.039062 14.992188 -20.421875 18.09375 -29.46875 C 18.355469 -29.859375 18.484375 -30.375 18.613281 -30.761719 L 19.386719 -32.960938 L 19.386719 -32.832031 C 20.550781 -36.320312 21.714844 -39.808594 22.75 -43.429688 C 22.75 -43.042969 22.230469 -41.101562 22.359375 -41.101562 C 23.136719 -40.972656 24.171875 -46.402344 23.652344 -46.402344 L 23.265625 -45.757812 C 23.652344 -47.695312 24.300781 -48.601562 23.136719 -50.796875 C 22.230469 -52.734375 20.679688 -54.546875 18.484375 -55.0625 C 14.21875 -56.226562 12.148438 -52.734375 12.410156 -49.375 C 12.410156 -48.859375 13.054688 -48.601562 13.054688 -48.082031 C 13.054688 -47.4375 12.410156 -46.273438 12.277344 -45.757812 C 11.375 -43.042969 10.726562 -40.457031 9.695312 -37.871094 C 9.175781 -36.449219 4.394531 -23.007812 4.394531 -23.007812 C 4.652344 -23.136719 4.78125 -23.394531 4.910156 -23.652344 C 4.523438 -22.492188 4.136719 -21.328125 3.617188 -20.164062 C 3.488281 -20.292969 4.007812 -21.199219 3.75 -21.199219 C 2.457031 -21.457031 -0.777344 -10.597656 -1.035156 -9.566406 C -1.550781 -7.109375 -2.199219 -4.78125 -3.101562 -2.328125 C -3.488281 -1.035156 -4.007812 0.257812 -4.394531 1.679688 C -4.394531 1.808594 -5.039062 4.910156 -4.394531 3.75 C -4.523438 4.136719 -4.652344 4.394531 -4.652344 4.652344 C -4.652344 4.523438 -4.78125 4.394531 -4.78125 4.265625 C -5.171875 4.394531 -5.429688 7.109375 -5.429688 7.238281 C -5.945312 8.660156 -6.59375 9.695312 -7.238281 10.988281 C -8.917969 15.121094 -9.824219 19.648438 -10.46875 24.042969 C -11.503906 30.761719 -14.605469 40.84375 -11.246094 47.046875 C -10.082031 49.246094 -6.460938 53.769531 -3.617188 51.054688 C -2.328125 49.761719 -2.328125 46.789062 -2.199219 45.238281 C -1.421875 40.972656 -0.777344 36.578125 0.128906 32.3125 L 1.292969 26.367188 C 1.421875 26.109375 2.457031 21.328125 2.066406 21.457031 C 1.808594 21.714844 1.550781 22.101562 1.421875 22.492188 C 2.066406 20.421875 2.972656 18.484375 3.75 16.285156 C 4.78125 13.183594 5.558594 10.210938 7.109375 7.367188 C 8.917969 4.523438 10.46875 1.421875 12.148438 -1.421875 C 13.441406 -3.75 14.605469 -6.722656 16.027344 -8.660156 C 16.414062 -9.175781 17.191406 -9.4375 17.835938 -9.953125 C 19.128906 -11.375 20.035156 -13.3125 21.070312 -14.863281 C 23.007812 -17.964844 24.6875 -21.070312 26.753906 -23.914062 C 27.660156 -25.203125 38 -39.679688 39.035156 -40.585938 C 38.777344 -40.457031 38.519531 -40.328125 38.257812 -40.070312 C 39.292969 -41.363281 40.457031 -42.523438 41.492188 -43.558594 C 41.621094 -43.429688 40.714844 -42.652344 40.84375 -42.523438 C 41.101562 -42.394531 47.046875 -47.046875 48.082031 -47.179688 C 50.925781 -47.695312 49.890625 -42.265625 49.503906 -40.84375 C 48.859375 -37.871094 47.179688 -35.027344 45.757812 -32.441406 C 44.980469 -31.019531 44.207031 -29.730469 43.558594 -28.308594 C 43.429688 -28.175781 42.394531 -25.722656 42.785156 -25.980469 L 42.007812 -24.816406 C 42.265625 -25.203125 42.394531 -25.722656 42.394531 -25.722656 C 41.878906 -25.722656 41.230469 -23.523438 41.101562 -23.136719 C 40.328125 -21.84375 39.292969 -20.808594 38.257812 -19.777344 C 35.546875 -16.675781 33.089844 -13.441406 30.375 -10.46875 C 28.308594 -8.273438 25.59375 -4.394531 22.492188 -3.617188 C 20.292969 -3.101562 18.613281 -4.265625 19.777344 -0.777344 C 20.550781 1.679688 23.394531 7.367188 26.496094 7.367188 C 29.339844 7.367188 32.832031 3.101562 34.511719 1.292969 C 36.449219 -0.90625 38.648438 -2.972656 40.714844 -5.300781 C 41.230469 -6.074219 47.179688 -13.183594 48.082031 -13.570312 L 47.953125 -13.570312 C 49.246094 -14.21875 50.539062 -13.699219 52.347656 -14.992188 C 53.382812 -15.769531 53.898438 -16.542969 55.0625 -17.320312 C 55.96875 -17.835938 56.355469 -18.484375 56.742188 -18.871094 C 56.742188 -18.871094 56.742188 -18.742188 56.871094 -18.742188 C 58.164062 -20.035156 59.972656 -19.648438 61.65625 -20.808594 C 63.722656 -22.230469 66.308594 -24.042969 68.117188 -25.722656 C 70.445312 -27.789062 73.675781 -28.953125 74.710938 -32.441406 C 74.191406 -32.3125 73.546875 -32.3125 73.160156 -32.054688 Z M 6.980469 -18.871094 L 6.980469 -18.742188 C 6.851562 -17.0625 5.6875 -15.121094 5.039062 -13.570312 C 4.136719 -11.117188 3.359375 -8.660156 2.585938 -6.203125 C 0.90625 -1.035156 -1.035156 4.136719 -3.101562 9.046875 C -4.78125 13.183594 -6.332031 17.707031 -7.496094 22.230469 C -6.074219 15.898438 -3.75 9.695312 -1.9375 3.75 C -0.257812 -1.679688 2.328125 -6.980469 4.394531 -12.277344 C 4.652344 -12.925781 7.109375 -18.09375 6.851562 -19.128906 C 6.980469 -19 6.980469 -18.871094 6.980469 -18.871094 Z M 12.667969 -14.992188 C 12.277344 -13.441406 11.890625 -12.019531 11.375 -10.726562 C 11.761719 -12.019531 12.148438 -13.570312 12.667969 -14.992188 Z M 30.375 -36.191406 L 27.917969 -32.570312 C 28.695312 -33.734375 29.46875 -35.027344 30.375 -36.191406 Z M 51.445312 -20.550781 C 51.574219 -20.9375 52.21875 -21.070312 52.605469 -21.328125 Z M 20.550781 -35.675781 C 20.421875 -35.546875 20.292969 -35.15625 20.164062 -34.640625 Z M 19.648438 -33.476562 L 20.164062 -34.640625 Z M 26.367188 -30.246094 L 26.367188 -30.375 C 26.496094 -30.503906 26.496094 -30.503906 26.496094 -30.632812 C 26.625 -30.761719 26.496094 -30.503906 26.367188 -30.246094 Z M 19.648438 -33.476562 C 19.648438 -33.21875 19.515625 -33.089844 19.386719 -32.960938 Z M -7.753906 23.394531 C -7.753906 23.265625 -7.753906 23.265625 -7.625 23.136719 C -7.625 23.265625 -7.625 23.265625 -7.753906 23.394531 Z M 13.441406 -16.542969 C 13.441406 -16.414062 13.3125 -16.414062 13.3125 -16.414062 Z M 13.441406 -16.542969 "/></g></g></g><g fill="#4e3bf0" fill-opacity="1"><g transform="translate(176.838449, 120.951906)"><g><path d="M 22.796875 -11.0625 C 22.796875 -7.40625 21.890625 -4.597656 20.078125 -2.640625 C 18.265625 -0.679688 15.671875 0.296875 12.296875 0.296875 C 8.910156 0.296875 6.3125 -0.679688 4.5 -2.640625 C 2.695312 -4.597656 1.796875 -7.414062 1.796875 -11.09375 C 1.796875 -14.757812 2.703125 -17.5625 4.515625 -19.5 C 6.328125 -21.4375 8.929688 -22.40625 12.328125 -22.40625 C 15.710938 -22.40625 18.300781 -21.425781 20.09375 -19.46875 C 21.894531 -17.519531 22.796875 -14.71875 22.796875 -11.0625 Z M 6.703125 -11.0625 C 6.703125 -8.59375 7.164062 -6.734375 8.09375 -5.484375 C 9.03125 -4.242188 10.429688 -3.625 12.296875 -3.625 C 16.023438 -3.625 17.890625 -6.101562 17.890625 -11.0625 C 17.890625 -16.019531 16.035156 -18.5 12.328125 -18.5 C 10.460938 -18.5 9.054688 -17.875 8.109375 -16.625 C 7.171875 -15.375 6.703125 -13.519531 6.703125 -11.0625 Z M 6.703125 -11.0625 "/></g></g></g><g fill="#4e3bf0" fill-opacity="1"><g transform="translate(202.814492, 120.951906)"><g><path d="M 11.828125 -17.1875 C 12.453125 -17.1875 12.96875 -17.140625 13.375 -17.046875 L 13.03125 -12.734375 C 12.65625 -12.828125 12.203125 -12.875 11.671875 -12.875 C 10.203125 -12.875 9.054688 -12.5 8.234375 -11.75 C 7.421875 -11 7.015625 -9.941406 7.015625 -8.578125 L 7.015625 0 L 2.40625 0 L 2.40625 -16.859375 L 5.890625 -16.859375 L 6.578125 -14.03125 L 6.796875 -14.03125 C 7.328125 -14.976562 8.035156 -15.738281 8.921875 -16.3125 C 9.804688 -16.894531 10.773438 -17.1875 11.828125 -17.1875 Z M 11.828125 -17.1875 "/></g></g></g><g fill="#4e3bf0" fill-opacity="1"><g transform="translate(218.232218, 120.951906)"><g><path d="M 13.125 0 L 12.234375 -2.296875 L 12.109375 -2.296875 C 11.335938 -1.316406 10.539062 -0.640625 9.71875 -0.265625 C 8.894531 0.109375 7.828125 0.296875 6.515625 0.296875 C 4.898438 0.296875 3.625 -0.160156 2.6875 -1.078125 C 1.757812 -2.003906 1.296875 -3.320312 1.296875 -5.03125 C 1.296875 -6.820312 1.921875 -8.140625 3.171875 -8.984375 C 4.421875 -9.835938 6.3125 -10.3125 8.84375 -10.40625 L 11.765625 -10.5 L 11.765625 -11.234375 C 11.765625 -12.941406 10.890625 -13.796875 9.140625 -13.796875 C 7.796875 -13.796875 6.210938 -13.390625 4.390625 -12.578125 L 2.859375 -15.6875 C 4.804688 -16.695312 6.960938 -17.203125 9.328125 -17.203125 C 11.585938 -17.203125 13.316406 -16.707031 14.515625 -15.71875 C 15.722656 -14.738281 16.328125 -13.242188 16.328125 -11.234375 L 16.328125 0 Z M 11.765625 -7.8125 L 9.984375 -7.75 C 8.648438 -7.707031 7.65625 -7.460938 7 -7.015625 C 6.34375 -6.578125 6.015625 -5.90625 6.015625 -5 C 6.015625 -3.707031 6.757812 -3.0625 8.25 -3.0625 C 9.3125 -3.0625 10.160156 -3.367188 10.796875 -3.984375 C 11.441406 -4.597656 11.765625 -5.410156 11.765625 -6.421875 Z M 11.765625 -7.8125 "/></g></g></g><g fill="#4e3bf0" fill-opacity="1"><g transform="translate(238.28052, 120.951906)"><g><path d="M 7.015625 0 L 2.40625 0 L 2.40625 -23.46875 L 7.015625 -23.46875 Z M 7.015625 0 "/></g></g></g><g fill="#4e3bf0" fill-opacity="1"><g transform="translate(249.096257, 120.951906)"><g/></g></g><g fill="#4e3bf0" fill-opacity="1"><g transform="translate(258.506412, 120.951906)"><g><path d="M 17.015625 -15.625 C 17.015625 -13.394531 16.25 -11.675781 14.71875 -10.46875 C 13.195312 -9.269531 11.019531 -8.671875 8.1875 -8.671875 L 5.59375 -8.671875 L 5.59375 0 L 3.03125 0 L 3.03125 -22.046875 L 8.75 -22.046875 C 14.257812 -22.046875 17.015625 -19.90625 17.015625 -15.625 Z M 5.59375 -10.875 L 7.90625 -10.875 C 10.175781 -10.875 11.816406 -11.238281 12.828125 -11.96875 C 13.847656 -12.707031 14.359375 -13.882812 14.359375 -15.5 C 14.359375 -16.957031 13.878906 -18.039062 12.921875 -18.75 C 11.972656 -19.46875 10.488281 -19.828125 8.46875 -19.828125 L 5.59375 -19.828125 Z M 5.59375 -10.875 "/></g></g></g><g fill="#4e3bf0" fill-opacity="1"><g transform="translate(278.494383, 120.951906)"><g><path d="M 10.203125 -16.828125 C 10.929688 -16.828125 11.585938 -16.769531 12.171875 -16.65625 L 11.828125 -14.328125 C 11.140625 -14.484375 10.535156 -14.5625 10.015625 -14.5625 C 8.679688 -14.5625 7.535156 -14.015625 6.578125 -12.921875 C 5.628906 -11.835938 5.15625 -10.488281 5.15625 -8.875 L 5.15625 0 L 2.65625 0 L 2.65625 -16.53125 L 4.71875 -16.53125 L 5 -13.46875 L 5.125 -13.46875 C 5.738281 -14.539062 6.476562 -15.367188 7.34375 -15.953125 C 8.207031 -16.535156 9.160156 -16.828125 10.203125 -16.828125 Z M 10.203125 -16.828125 "/></g></g></g><g fill="#4e3bf0" fill-opacity="1"><g transform="translate(292.494279, 120.951906)"><g><path d="M 9.640625 0.296875 C 7.191406 0.296875 5.257812 -0.441406 3.84375 -1.921875 C 2.4375 -3.410156 1.734375 -5.476562 1.734375 -8.125 C 1.734375 -10.789062 2.390625 -12.90625 3.703125 -14.46875 C 5.015625 -16.039062 6.773438 -16.828125 8.984375 -16.828125 C 11.054688 -16.828125 12.695312 -16.144531 13.90625 -14.78125 C 15.113281 -13.425781 15.71875 -11.628906 15.71875 -9.390625 L 15.71875 -7.8125 L 4.328125 -7.8125 C 4.378906 -5.875 4.867188 -4.398438 5.796875 -3.390625 C 6.722656 -2.390625 8.035156 -1.890625 9.734375 -1.890625 C 11.515625 -1.890625 13.273438 -2.257812 15.015625 -3 L 15.015625 -0.765625 C 14.128906 -0.390625 13.289062 -0.117188 12.5 0.046875 C 11.707031 0.210938 10.753906 0.296875 9.640625 0.296875 Z M 8.953125 -14.734375 C 7.628906 -14.734375 6.570312 -14.300781 5.78125 -13.4375 C 4.988281 -12.570312 4.523438 -11.375 4.390625 -9.84375 L 13.03125 -9.84375 C 13.03125 -11.425781 12.675781 -12.632812 11.96875 -13.46875 C 11.269531 -14.3125 10.265625 -14.734375 8.953125 -14.734375 Z M 8.953125 -14.734375 "/></g></g></g><g fill="#4e3bf0" fill-opacity="1"><g transform="translate(311.215252, 120.951906)"><g><path d="M 10.34375 0.296875 C 9.269531 0.296875 8.285156 0.0976562 7.390625 -0.296875 C 6.503906 -0.691406 5.757812 -1.300781 5.15625 -2.125 L 4.984375 -2.125 C 5.097656 -1.15625 5.15625 -0.238281 5.15625 0.625 L 5.15625 7.421875 L 2.65625 7.421875 L 2.65625 -16.53125 L 4.6875 -16.53125 L 5.03125 -14.265625 L 5.15625 -14.265625 C 5.800781 -15.171875 6.550781 -15.820312 7.40625 -16.21875 C 8.257812 -16.625 9.238281 -16.828125 10.34375 -16.828125 C 12.539062 -16.828125 14.234375 -16.078125 15.421875 -14.578125 C 16.609375 -13.085938 17.203125 -10.988281 17.203125 -8.28125 C 17.203125 -5.5625 16.597656 -3.453125 15.390625 -1.953125 C 14.179688 -0.453125 12.5 0.296875 10.34375 0.296875 Z M 9.984375 -14.703125 C 8.296875 -14.703125 7.070312 -14.234375 6.3125 -13.296875 C 5.5625 -12.367188 5.175781 -10.882812 5.15625 -8.84375 L 5.15625 -8.28125 C 5.15625 -5.957031 5.539062 -4.296875 6.3125 -3.296875 C 7.09375 -2.296875 8.335938 -1.796875 10.046875 -1.796875 C 11.472656 -1.796875 12.585938 -2.375 13.390625 -3.53125 C 14.203125 -4.6875 14.609375 -6.28125 14.609375 -8.3125 C 14.609375 -10.375 14.203125 -11.953125 13.390625 -13.046875 C 12.585938 -14.148438 11.453125 -14.703125 9.984375 -14.703125 Z M 9.984375 -14.703125 "/></g></g></g><g fill="#4e3bf0" fill-opacity="1"><g transform="translate(331.535054, 120.951906)"><g><path d="M 12.828125 0 L 12.328125 -2.359375 L 12.203125 -2.359375 C 11.378906 -1.316406 10.554688 -0.613281 9.734375 -0.25 C 8.910156 0.113281 7.890625 0.296875 6.671875 0.296875 C 5.023438 0.296875 3.738281 -0.125 2.8125 -0.96875 C 1.882812 -1.8125 1.421875 -3.007812 1.421875 -4.5625 C 1.421875 -7.90625 4.085938 -9.65625 9.421875 -9.8125 L 12.234375 -9.90625 L 12.234375 -10.9375 C 12.234375 -12.226562 11.953125 -13.179688 11.390625 -13.796875 C 10.835938 -14.421875 9.945312 -14.734375 8.71875 -14.734375 C 7.34375 -14.734375 5.785156 -14.3125 4.046875 -13.46875 L 3.265625 -15.390625 C 4.085938 -15.828125 4.984375 -16.171875 5.953125 -16.421875 C 6.921875 -16.671875 7.894531 -16.796875 8.875 -16.796875 C 10.84375 -16.796875 12.300781 -16.359375 13.25 -15.484375 C 14.195312 -14.609375 14.671875 -13.207031 14.671875 -11.28125 L 14.671875 0 Z M 7.171875 -1.765625 C 8.722656 -1.765625 9.941406 -2.191406 10.828125 -3.046875 C 11.722656 -3.898438 12.171875 -5.097656 12.171875 -6.640625 L 12.171875 -8.125 L 9.671875 -8.03125 C 7.679688 -7.957031 6.242188 -7.644531 5.359375 -7.09375 C 4.484375 -6.550781 4.046875 -5.703125 4.046875 -4.546875 C 4.046875 -3.640625 4.316406 -2.945312 4.859375 -2.46875 C 5.410156 -2 6.179688 -1.765625 7.171875 -1.765625 Z M 7.171875 -1.765625 "/></g></g></g><path stroke-linecap="butt" transform="matrix(-0.000937119, 0.749696, -0.749999, -0.000937498, 168.381233, 37.673201)" fill="none" stroke-linejoin="miter" d="M -0.00114573 0.497896 L 193.087574 0.501425 " stroke="#4e3bf0" stroke- stroke-opacity="1" stroke-miterlimit="4"/></svg>
